<mxfile host="app.diagrams.net" modified="2022-03-22T14:12:07.313Z" agent="5.0 (Windows NT 10.0; Win64; x64) AppleWebKit/537.36 (KHTML, like Gecko) Chrome/99.0.4844.74 Safari/537.36 Edg/99.0.1150.46" etag="BYNzIJy1cu9fhk3vZAnU" version="17.1.2" type="github">
  <diagram id="6o9Ri2ypYXMhtzlHNQ-N" name="Page-1">
    <mxGraphModel dx="2494" dy="867" grid="1" gridSize="10" guides="1" tooltips="1" connect="1" arrows="1" fold="1" page="1" pageScale="1" pageWidth="827" pageHeight="1169" math="0" shadow="0">
      <root>
        <mxCell id="0" />
        <mxCell id="1" parent="0" />
        <mxCell id="EWHqQvCqx0EGEhfJ3WLy-1" value="Sign In Function" style="rounded=0;whiteSpace=wrap;html=1;" vertex="1" parent="1">
          <mxGeometry x="560" y="320" width="120" height="60" as="geometry" />
        </mxCell>
        <mxCell id="EWHqQvCqx0EGEhfJ3WLy-2" value="Protected Functions" style="rounded=0;whiteSpace=wrap;html=1;" vertex="1" parent="1">
          <mxGeometry x="560" y="440" width="120" height="60" as="geometry" />
        </mxCell>
        <mxCell id="EWHqQvCqx0EGEhfJ3WLy-3" value="client" style="rounded=0;whiteSpace=wrap;html=1;" vertex="1" parent="1">
          <mxGeometry x="160" y="240" width="120" height="60" as="geometry" />
        </mxCell>
        <mxCell id="EWHqQvCqx0EGEhfJ3WLy-8" value="jwt token" style="endArrow=classic;html=1;rounded=0;exitX=0;exitY=0.75;exitDx=0;exitDy=0;" edge="1" parent="1" source="EWHqQvCqx0EGEhfJ3WLy-1">
          <mxGeometry width="50" height="50" relative="1" as="geometry">
            <mxPoint x="390" y="470" as="sourcePoint" />
            <mxPoint x="220" y="365" as="targetPoint" />
          </mxGeometry>
        </mxCell>
        <mxCell id="EWHqQvCqx0EGEhfJ3WLy-9" value="basic auth + username:password" style="endArrow=classic;html=1;rounded=0;entryX=0;entryY=0.25;entryDx=0;entryDy=0;" edge="1" parent="1" target="EWHqQvCqx0EGEhfJ3WLy-1">
          <mxGeometry width="50" height="50" relative="1" as="geometry">
            <mxPoint x="220" y="335" as="sourcePoint" />
            <mxPoint x="440" y="420" as="targetPoint" />
          </mxGeometry>
        </mxCell>
        <mxCell id="EWHqQvCqx0EGEhfJ3WLy-10" value="" style="endArrow=none;html=1;rounded=0;entryX=0.5;entryY=1;entryDx=0;entryDy=0;" edge="1" parent="1" target="EWHqQvCqx0EGEhfJ3WLy-3">
          <mxGeometry width="50" height="50" relative="1" as="geometry">
            <mxPoint x="220" y="520" as="sourcePoint" />
            <mxPoint x="440" y="420" as="targetPoint" />
          </mxGeometry>
        </mxCell>
        <mxCell id="EWHqQvCqx0EGEhfJ3WLy-11" value="bearer auth + jwt token" style="endArrow=classic;html=1;rounded=0;entryX=0;entryY=0.25;entryDx=0;entryDy=0;" edge="1" parent="1" target="EWHqQvCqx0EGEhfJ3WLy-2">
          <mxGeometry width="50" height="50" relative="1" as="geometry">
            <mxPoint x="220" y="455" as="sourcePoint" />
            <mxPoint x="570" y="345" as="targetPoint" />
          </mxGeometry>
        </mxCell>
        <mxCell id="EWHqQvCqx0EGEhfJ3WLy-12" value="protected resource" style="endArrow=classic;html=1;rounded=0;exitX=0;exitY=0.75;exitDx=0;exitDy=0;" edge="1" parent="1" source="EWHqQvCqx0EGEhfJ3WLy-2">
          <mxGeometry width="50" height="50" relative="1" as="geometry">
            <mxPoint x="570" y="375" as="sourcePoint" />
            <mxPoint x="220" y="485" as="targetPoint" />
          </mxGeometry>
        </mxCell>
      </root>
    </mxGraphModel>
  </diagram>
</mxfile>
